<svg xmlns="http://www.w3.org/2000/svg" width="1200" height="800" viewBox="0 0 1200 800">
  <defs>
    <linearGradient id="bg" x1="0" y1="0" x2="1" y2="1">
      <stop offset="0" stop-color="#fff7fb"/>
      <stop offset="1" stop-color="#f5f3ff"/>
    </linearGradient>
    <linearGradient id="cup" x1="0" y1="0" x2="1" y2="1">
      <stop offset="0" stop-color="#ec4899"/>
      <stop offset="1" stop-color="#a855f7"/>
    </linearGradient>
  </defs>
  <rect width="1200" height="800" fill="url(#bg)"/>
  <circle cx="250" cy="180" r="170" fill="#ec4899" fill-opacity=".14"/>
  <circle cx="980" cy="160" r="210" fill="#a855f7" fill-opacity=".14"/>
  <rect x="340" y="220" width="520" height="430" rx="46" fill="#ffffff" fill-opacity=".86" stroke="#000" stroke-opacity=".06"/>
  <path d="M430 330h340" stroke="#3b1f14" stroke-opacity=".16" stroke-width="16" stroke-linecap="round"/>
  <path d="M450 355c0 90 0 185 0 265 0 40 30 70 70 70h150c40 0 70-30 70-70V355" fill="none" stroke="url(#cup)" stroke-width="18" stroke-linecap="round"/>
  <path d="M740 410c70 0 85 110 0 110" fill="none" stroke="url(#cup)" stroke-width="18" stroke-linecap="round"/>
  <path d="M515 285c0 45-25 45-25 90" stroke="#10b981" stroke-opacity=".55" stroke-width="12" stroke-linecap="round"/>
  <path d="M600 285c0 45-25 45-25 90" stroke="#10b981" stroke-opacity=".55" stroke-width="12" stroke-linecap="round"/>
  <path d="M685 285c0 45-25 45-25 90" stroke="#10b981" stroke-opacity=".55" stroke-width="12" stroke-linecap="round"/>
  <text x="600" y="620" text-anchor="middle" font-family="ui-sans-serif, system-ui" font-weight="850" font-size="46" fill="#1f2430">Coffee spot on</text>
  <text x="600" y="670" text-anchor="middle" font-family="ui-sans-serif, system-ui" font-weight="650" font-size="22" fill="#5a6476">Espresso-based drinks + matcha</text>
</svg>
